{"scene":0,"asset":{"generator":"ImageToStl.com","version":"2.0"},"scenes":[{"name":"Scene","nodes":[0]}],"nodes":[{"name":"Node0","children":[1,2]},{"name":"Node1","mesh":0},{"name":"Node2","mesh":1}],"materials":[{"name":"x1","pbrMetallicRoughness":{"baseColorFactor":[0.85,0.85,0.85,1.0],"metallicFactor":0.05,"roughnessFactor":0.5},"doubleSided":true}],"meshes":[{"name":"Mesh0","primitives":[{"indices":2,"material":0,"attributes":{"POSITION":0,"NORMAL":1}}]},{"name":"Mesh0","primitives":[{"indices":5,"material":0,"attributes":{"POSITION":3,"NORMAL":4}}]}],"accessors":[{"bufferView":0,"componentType":5126,"count":51179,"type":"VEC3","min":[-50.0,-10.438145,-5.0],"max":[50.257732,10.695877,5.0]},{"bufferView":1,"componentType":5126,"count":51179,"type":"VEC3"},{"bufferView":2,"componentType":5123,"count":71919,"type":"SCALAR"},{"bufferView":3,"componentType":5126,"count":4685,"type":"VEC3","min":[-50.0,-10.438145,-5.0],"max":[50.257732,10.695877,-5.0]},{"bufferView":4,"componentType":5126,"count":4685,"type":"VEC3"},{"bufferView":5,"componentType":5123,"count":21711,"type":"SCALAR"}],"bufferViews":[{"target":34962,"buffer":0,"byteLength":614148,"byteOffset":0},{"target":34962,"buffer":0,"byteLength":614148,"byteOffset":614148},{"target":34963,"buffer":0,"byteLength":143838,"byteOffset":1228296},{"target":34962,"buffer":0,"byteLength":56220,"byteOffset":1372136},{"target":34962,"buffer":0,"byteLength":56220,"byteOffset":1428356},{"target":34963,"buffer":0,"byteLength":43422,"byteOffset":1484576}],"buffers":[{"byteLength":1528000,"uri":"data:application/octet-stream;base64,"}]}