{
  "accessors": [
    {
      "bufferView": 2,
      "componentType": 5126,
      "count": 30943,
      "max": [
        11.380399703979492,
        35.538700103759766,
        34.42340087890625
      ],
      "min": [
        -11.380399703979492,
        -0.0031999999191612005,
        -34.57720184326172
      ],
      "type": "VEC3"
    },
    {
      "bufferView": 2,
      "byteOffset": 371316,
      "componentType": 5126,
      "count": 30943,
      "max": [
        1.0,
        1.0,
        1.0
      ],
      "min": [
        -1.0,
        -1.0,
        -1.0
      ],
      "type": "VEC3"
    },
    {
      "bufferView": 3,
      "componentType": 5126,
      "count": 30943,
      "max": [
        1.0,
        1.0,
        1.0,
        1.0
      ],
      "min": [
        -1.0,
        -1.0,
        -1.0,
        -1.0
      ],
      "type": "VEC4"
    },
    {
      "bufferView": 1,
      "componentType": 5126,
      "count": 30943,
      "max": [
        0.9988999962806702,
        0.9984999895095825
      ],
      "min": [
        0.00039999998989515007,
        0.00019999999494757503
      ],
      "type": "VEC2"
    },
    {
      "bufferView": 1,
      "byteOffset": 247544,
      "componentType": 5126,
      "count": 30943,
      "max": [
        0.9988999962806702,
        0.9984999895095825
      ],
      "min": [
        0.00039999998989515007,
        0.00019999999494757503
      ],
      "type": "VEC2"
    },
    {
      "bufferView": 1,
      "byteOffset": 495088,
      "componentType": 5126,
      "count": 30943,
      "max": [
        0.9988999962806702,
        0.9984999895095825
      ],
      "min": [
        0.00039999998989515007,
        0.00019999999494757503
      ],
      "type": "VEC2"
    },
    {
      "bufferView": 1,
      "byteOffset": 742632,
      "componentType": 5126,
      "count": 30943,
      "max": [
        0.9988999962806702,
        0.9984999895095825
      ],
      "min": [
        0.00039999998989515007,
        0.00019999999494757503
      ],
      "type": "VEC2"
    },
    {
      "bufferView": 1,
      "byteOffset": 990176,
      "componentType": 5126,
      "count": 30943,
      "max": [
        0.9988999962806702,
        0.9984999895095825
      ],
      "min": [
        0.00039999998989515007,
        0.00019999999494757503
      ],
      "type": "VEC2"
    },
    {
      "bufferView": 1,
      "byteOffset": 1237720,
      "componentType": 5126,
      "count": 30943,
      "max": [
        0.9988999962806702,
        0.9984999895095825
      ],
      "min": [
        0.00039999998989515007,
        0.00019999999494757503
      ],
      "type": "VEC2"
    },
    {
      "bufferView": 1,
      "byteOffset": 1485264,
      "componentType": 5126,
      "count": 30943,
      "max": [
        0.9988999962806702,
        0.9984999895095825
      ],
      "min": [
        0.00039999998989515007,
        0.00019999999494757503
      ],
      "type": "VEC2"
    },
    {
      "bufferView": 1,
      "byteOffset": 1732808,
      "componentType": 5126,
      "count": 30943,
      "max": [
        0.9988999962806702,
        0.9984999895095825
      ],
      "min": [
        0.00039999998989515007,
        0.00019999999494757503
      ],
      "type": "VEC2"
    },
    {
      "bufferView": 0,
      "componentType": 5125,
      "count": 117897,
      "type": "SCALAR"
    },
    {
      "bufferView": 2,
      "byteOffset": 742632,
      "componentType": 5126,
      "count": 108,
      "max": [
        7.431700229644775,
        32.74789810180664,
        31.061199188232422
      ],
      "min": [
        -7.9832000732421875,
        12.487799644470215,
        -31.668399810791016
      ],
      "type": "VEC3"
    },
    {
      "bufferView": 2,
      "byteOffset": 743928,
      "componentType": 5126,
      "count": 108,
      "max": [
        0.9178730249404907,
        0.9179700016975403,
        1.0
      ],
      "min": [
        -0.9180074334144592,
        -0.9179700016975403,
        -1.0
      ],
      "type": "VEC3"
    },
    {
      "bufferView": 1,
      "byteOffset": 1980352,
      "componentType": 5126,
      "count": 108,
      "max": [
        0.7998999953269958,
        0.032999999821186066
      ],
      "min": [
        0.7591000199317932,
        0.00039999998989515007
      ],
      "type": "VEC2"
    },
    {
      "bufferView": 1,
      "byteOffset": 1981216,
      "componentType": 5126,
      "count": 108,
      "max": [
        0.7998999953269958,
        0.032999999821186066
      ],
      "min": [
        0.7591000199317932,
        0.00039999998989515007
      ],
      "type": "VEC2"
    },
    {
      "bufferView": 1,
      "byteOffset": 1982080,
      "componentType": 5126,
      "count": 108,
      "max": [
        0.7998999953269958,
        0.032999999821186066
      ],
      "min": [
        0.7591000199317932,
        0.00039999998989515007
      ],
      "type": "VEC2"
    },
    {
      "bufferView": 1,
      "byteOffset": 1982944,
      "componentType": 5126,
      "count": 108,
      "max": [
        0.7998999953269958,
        0.032999999821186066
      ],
      "min": [
        0.7591000199317932,
        0.00039999998989515007
      ],
      "type": "VEC2"
    },
    {
      "bufferView": 0,
      "byteOffset": 471588,
      "componentType": 5125,
      "count": 456,
      "type": "SCALAR"
    }
  ],
  "asset": {
    "extras": {
      "author": "ChoochooLi (https://sketchfab.com/ChoochooLi)",
      "license": "CC-BY-4.0 (http://creativecommons.org/licenses/by/4.0/)",
      "source": "https://sketchfab.com/3d-models/realistic-looking-thomas-the-tank-engine-7ab392f0ff2f4df992bf3c46b470e59e",
      "title": "Realistic looking Thomas The Tank Engine"
    },
    "generator": "Sketchfab-16.72.0",
    "version": "2.0"
  },
  "bufferViews": [
    {
      "buffer": 0,
      "byteLength": 473412,
      "name": "floatBufferViews",
      "target": 34963
    },
    {
      "buffer": 0,
      "byteLength": 1983808,
      "byteOffset": 473412,
      "byteStride": 8,
      "name": "floatBufferViews",
      "target": 34962
    },
    {
      "buffer": 0,
      "byteLength": 745224,
      "byteOffset": 2457220,
      "byteStride": 12,
      "name": "floatBufferViews",
      "target": 34962
    },
    {
      "buffer": 0,
      "byteLength": 495088,
      "byteOffset": 3202444,
      "byteStride": 16,
      "name": "floatBufferViews",
      "target": 34962
    }
  ],
  "buffers": [
    {
      "byteLength": 3697532,
      "uri": "scene.bin"
    }
  ],
  "extensionsRequired": [
    "KHR_materials_pbrSpecularGlossiness"
  ],
  "extensionsUsed": [
    "KHR_materials_pbrSpecularGlossiness"
  ],
  "images": [
    {
      "uri": "textures/thomas_diffuse.png"
    },
    {
      "uri": "textures/thomas_specularGlossiness.png"
    },
    {
      "uri": "textures/thomas_normal.png"
    },
    {
      "uri": "textures/thomas_occlusion.png"
    }
  ],
  "materials": [
    {
      "doubleSided": true,
      "extensions": {
        "KHR_materials_pbrSpecularGlossiness": {
          "diffuseFactor": [
            1.0,
            1.0,
            1.0,
            1.0
          ],
          "diffuseTexture": {
            "index": 0
          },
          "glossinessFactor": 1.0,
          "specularFactor": [
            1.0,
            1.0,
            1.0
          ],
          "specularGlossinessTexture": {
            "index": 1
          }
        }
      },
      "name": "thomas",
      "normalTexture": {
        "index": 2
      },
      "occlusionTexture": {
        "index": 3
      }
    },
    {
      "alphaMode": "BLEND",
      "doubleSided": true,
      "extensions": {
        "KHR_materials_pbrSpecularGlossiness": {
          "diffuseFactor": [
            0.053573780633981286,
            0.05310645804802933,
            0.05310645804802933,
            0.26598837209302323
          ],
          "glossinessFactor": 1.0,
          "specularFactor": [
            0.05,
            0.05,
            0.05
          ]
        }
      },
      "name": "glass"
    }
  ],
  "meshes": [
    {
      "name": "Object_0",
      "primitives": [
        {
          "attributes": {
            "NORMAL": 1,
            "POSITION": 0,
            "TANGENT": 2,
            "TEXCOORD_0": 3,
            "TEXCOORD_1": 4,
            "TEXCOORD_2": 5,
            "TEXCOORD_3": 6,
            "TEXCOORD_4": 7,
            "TEXCOORD_5": 8,
            "TEXCOORD_6": 9,
            "TEXCOORD_7": 10
          },
          "indices": 11,
          "material": 0,
          "mode": 4
        }
      ]
    },
    {
      "name": "Object_1",
      "primitives": [
        {
          "attributes": {
            "NORMAL": 13,
            "POSITION": 12,
            "TEXCOORD_0": 14,
            "TEXCOORD_1": 15,
            "TEXCOORD_2": 16,
            "TEXCOORD_3": 17
          },
          "indices": 18,
          "material": 1,
          "mode": 4
        }
      ]
    }
  ],
  "nodes": [
    {
      "children": [
        1
      ],
      "matrix": [
        1.0,
        0.0,
        0.0,
        0.0,
        0.0,
        2.220446049250313e-16,
        -1.0,
        0.0,
        0.0,
        1.0,
        2.220446049250313e-16,
        0.0,
        0.0,
        0.0,
        0.0,
        1.0
      ],
      "name": "Sketchfab_model"
    },
    {
      "children": [
        2
      ],
      "name": "root"
    },
    {
      "children": [
        3
      ],
      "matrix": [
        1.0,
        0.0,
        0.0,
        0.0,
        0.0,
        2.220446049250313e-16,
        1.0,
        0.0,
        0.0,
        -1.0,
        2.220446049250313e-16,
        0.0,
        0.0,
        0.0,
        0.0,
        1.0
      ],
      "name": "GLTF_SceneRootNode"
    },
    {
      "children": [
        4
      ],
      "matrix": [
        1.1354142427444458,
        0.0,
        0.0,
        0.0,
        0.0,
        2.5211260695644406e-16,
        -1.1354142427444458,
        0.0,
        0.0,
        1.1354142427444458,
        2.5211260695644406e-16,
        0.0,
        0.0,
        0.0,
        0.0,
        1.0
      ],
      "name": "Sketchfab_model_0"
    },
    {
      "children": [
        5,
        8
      ],
      "name": "Root_1"
    },
    {
      "children": [
        6
      ],
      "matrix": [
        0.13167999684810638,
        0.0,
        0.0,
        0.0,
        0.0,
        -0.0,
        0.13167999684810638,
        0.0,
        0.0,
        -0.13167999684810638,
        -0.0,
        0.0,
        0.0,
        0.0,
        0.0,
        1.0
      ],
      "name": "thomas_4"
    },
    {
      "children": [
        7
      ],
      "name": "thomas_0_5"
    },
    {
      "mesh": 0,
      "name": "Object_7"
    },
    {
      "children": [
        9
      ],
      "matrix": [
        0.13167999684810638,
        0.0,
        0.0,
        0.0,
        0.0,
        -0.0,
        0.13167999684810638,
        0.0,
        0.0,
        -0.13167999684810638,
        -0.0,
        0.0,
        0.0,
        0.0,
        0.0,
        1.0
      ],
      "name": "glass_6"
    },
    {
      "children": [
        10
      ],
      "name": "glass_0_7"
    },
    {
      "mesh": 1,
      "name": "Object_10"
    }
  ],
  "samplers": [
    {
      "magFilter": 9729,
      "minFilter": 9987,
      "wrapS": 10497,
      "wrapT": 10497
    }
  ],
  "scene": 0,
  "scenes": [
    {
      "name": "Sketchfab_Scene",
      "nodes": [
        0
      ]
    }
  ],
  "textures": [
    {
      "sampler": 0,
      "source": 0
    },
    {
      "sampler": 0,
      "source": 1
    },
    {
      "sampler": 0,
      "source": 2
    },
    {
      "sampler": 0,
      "source": 3
    }
  ]
}
