{
  "accessors": [
    {
      "bufferView": 2,
      "componentType": 5126,
      "count": 1663,
      "max": [
        0.34805500507354736,
        0.12146499752998352,
        0.4827989935874939
      ],
      "min": [
        -0.34845998883247375,
        -0.10621699690818787,
        -0.0006399999838322401
      ],
      "type": "VEC3"
    },
    {
      "bufferView": 2,
      "byteOffset": 19956,
      "componentType": 5126,
      "count": 1663,
      "max": [
        1.0,
        0.9952151775360107,
        0.9999920129776001
      ],
      "min": [
        -1.0,
        -1.0,
        -1.0
      ],
      "type": "VEC3"
    },
    {
      "bufferView": 1,
      "componentType": 5126,
      "count": 1663,
      "max": [
        0.993120014667511,
        -0.005371000152081251
      ],
      "min": [
        0.007023999933153391,
        -0.9932640194892883
      ],
      "type": "VEC2"
    },
    {
      "bufferView": 0,
      "componentType": 5125,
      "count": 8196,
      "type": "SCALAR"
    }
  ],
  "asset": {
    "extras": {
      "author": "gaddiellartey2010 (https://sketchfab.com/gaddiellartey2010)",
      "license": "CC-BY-4.0 (http://creativecommons.org/licenses/by/4.0/)",
      "source": "https://sketchfab.com/3d-models/rico-9c1522ddd44d410d8bd367963c7c929c",
      "title": "Rico"
    },
    "generator": "Sketchfab-15.25.0",
    "version": "2.0"
  },
  "bufferViews": [
    {
      "buffer": 0,
      "byteLength": 32784,
      "name": "floatBufferViews",
      "target": 34963
    },
    {
      "buffer": 0,
      "byteLength": 13304,
      "byteOffset": 32784,
      "byteStride": 8,
      "name": "floatBufferViews",
      "target": 34962
    },
    {
      "buffer": 0,
      "byteLength": 39912,
      "byteOffset": 46088,
      "byteStride": 12,
      "name": "floatBufferViews",
      "target": 34962
    }
  ],
  "buffers": [
    {
      "byteLength": 86000,
      "uri": "scene.bin"
    }
  ],
  "images": [
    {
      "uri": "textures/rico_baseColor.png"
    }
  ],
  "materials": [
    {
      "doubleSided": true,
      "name": "rico",
      "pbrMetallicRoughness": {
        "baseColorTexture": {
          "index": 0
        },
        "metallicFactor": 0.0
      }
    }
  ],
  "meshes": [
    {
      "name": "Object_0",
      "primitives": [
        {
          "attributes": {
            "NORMAL": 1,
            "POSITION": 0,
            "TEXCOORD_0": 2
          },
          "indices": 3,
          "material": 0,
          "mode": 4
        }
      ]
    }
  ],
  "nodes": [
    {
      "children": [
        1
      ],
      "matrix": [
        1.0,
        0.0,
        0.0,
        0.0,
        0.0,
        2.220446049250313e-16,
        -1.0,
        0.0,
        0.0,
        1.0,
        2.220446049250313e-16,
        0.0,
        0.0,
        0.0,
        0.0,
        1.0
      ],
      "name": "Sketchfab_model"
    },
    {
      "children": [
        2
      ],
      "name": "rico.obj.cleaner.materialmerger.gles"
    },
    {
      "mesh": 0,
      "name": "Object_2"
    }
  ],
  "samplers": [
    {
      "magFilter": 9729,
      "minFilter": 9987,
      "wrapS": 10497,
      "wrapT": 10497
    }
  ],
  "scene": 0,
  "scenes": [
    {
      "name": "Sketchfab_Scene",
      "nodes": [
        0
      ]
    }
  ],
  "textures": [
    {
      "sampler": 0,
      "source": 0
    }
  ]
}
