{
  "accessors": [
    {
      "bufferView": 2,
      "componentType": 5126,
      "count": 51081,
      "max": [
        0.9432547688484192,
        18.1585636138916,
        1.9153008460998535
      ],
      "min": [
        -1.388260006904602,
        15.195099830627441,
        -0.7378640174865723
      ],
      "type": "VEC3"
    },
    {
      "bufferView": 2,
      "byteOffset": 612972,
      "componentType": 5126,
      "count": 51081,
      "max": [
        0.999997615814209,
        0.999997615814209,
        0.9999618530273438
      ],
      "min": [
        -0.999997615814209,
        -0.999997615814209,
        -0.9999618530273438
      ],
      "type": "VEC3"
    },
    {
      "bufferView": 1,
      "componentType": 5126,
      "count": 51081,
      "max": [
        0.9938250184059143,
        1.9940379858016968
      ],
      "min": [
        0.00595800019800663,
        1.0059579610824585
      ],
      "type": "VEC2"
    },
    {
      "bufferView": 0,
      "componentType": 5125,
      "count": 143937,
      "type": "SCALAR"
    },
    {
      "bufferView": 2,
      "byteOffset": 1225944,
      "componentType": 5126,
      "count": 59975,
      "max": [
        4.373349666595459,
        18.37752914428711,
        2.315730094909668
      ],
      "min": [
        -4.371540069580078,
        -0.045060399919748306,
        -3.559950113296509
      ],
      "type": "VEC3"
    },
    {
      "bufferView": 2,
      "byteOffset": 1945644,
      "componentType": 5126,
      "count": 59975,
      "max": [
        0.9999785423278809,
        0.9999691247940063,
        0.9999618530273438
      ],
      "min": [
        -0.999997615814209,
        -0.9999403357505798,
        -0.9999141097068787
      ],
      "type": "VEC3"
    },
    {
      "bufferView": 1,
      "byteOffset": 408648,
      "componentType": 5126,
      "count": 59975,
      "max": [
        0.9891470074653625,
        1.9736659526824951
      ],
      "min": [
        0.010854999534785748,
        1.010854959487915
      ],
      "type": "VEC2"
    },
    {
      "bufferView": 0,
      "byteOffset": 575748,
      "componentType": 5125,
      "count": 332409,
      "type": "SCALAR"
    },
    {
      "bufferView": 2,
      "byteOffset": 2665344,
      "componentType": 5126,
      "count": 2669,
      "max": [
        3.990375518798828,
        17.70172882080078,
        1.5900342464447021
      ],
      "min": [
        -4.206874370574951,
        0.18095606565475464,
        -3.5576188564300537
      ],
      "type": "VEC3"
    },
    {
      "bufferView": 2,
      "byteOffset": 2697372,
      "componentType": 5126,
      "count": 2669,
      "max": [
        0.9999403357505798,
        0.9988545179367065,
        0.999226987361908
      ],
      "min": [
        -0.9999499917030334,
        -0.9994842410087585,
        -0.9998473525047302
      ],
      "type": "VEC3"
    },
    {
      "bufferView": 1,
      "byteOffset": 888448,
      "componentType": 5126,
      "count": 2669,
      "max": [
        0.8774750232696533,
        1.9362869262695313
      ],
      "min": [
        0.025426000356674194,
        1.0224920511245728
      ],
      "type": "VEC2"
    },
    {
      "bufferView": 0,
      "byteOffset": 1905384,
      "componentType": 5125,
      "count": 13908,
      "type": "SCALAR"
    },
    {
      "bufferView": 2,
      "byteOffset": 2729400,
      "componentType": 5126,
      "count": 1742,
      "max": [
        1.1915943622589111,
        17.486984252929688,
        2.0828030109405518
      ],
      "min": [
        -1.4785499572753906,
        14.667962074279785,
        0.8829929828643799
      ],
      "type": "VEC3"
    },
    {
      "bufferView": 2,
      "byteOffset": 2750304,
      "componentType": 5126,
      "count": 1742,
      "max": [
        0.947364330291748,
        0.8374665975570679,
        0.9999141097068787
      ],
      "min": [
        -0.9986736178398132,
        -0.9029390215873718,
        -0.9999141097068787
      ],
      "type": "VEC3"
    },
    {
      "bufferView": 1,
      "byteOffset": 909800,
      "componentType": 5126,
      "count": 1742,
      "max": [
        0.9827920198440552,
        1.8248510360717773
      ],
      "min": [
        0.8871930241584778,
        1.7075059413909912
      ],
      "type": "VEC2"
    },
    {
      "bufferView": 0,
      "byteOffset": 1961016,
      "componentType": 5125,
      "count": 10440,
      "type": "SCALAR"
    }
  ],
  "asset": {
    "extras": {
      "author": "xxmohamed141 (https://sketchfab.com/xxmohamed141)",
      "license": "SKETCHFAB Standard (https://sketchfab.com/licenses)",
      "source": "https://sketchfab.com/3d-models/hazmat-3d-models-backrooms-b5e50453ed92493ab71c5c52e0a23baf",
      "title": "Hazmat 3D models backrooms"
    },
    "generator": "Sketchfab-16.72.0",
    "version": "2.0"
  },
  "bufferViews": [
    {
      "buffer": 0,
      "byteLength": 2002776,
      "name": "floatBufferViews",
      "target": 34963
    },
    {
      "buffer": 0,
      "byteLength": 923736,
      "byteOffset": 2002776,
      "byteStride": 8,
      "name": "floatBufferViews",
      "target": 34962
    },
    {
      "buffer": 0,
      "byteLength": 2771208,
      "byteOffset": 2926512,
      "byteStride": 12,
      "name": "floatBufferViews",
      "target": 34962
    }
  ],
  "buffers": [
    {
      "byteLength": 5697720,
      "uri": "scene.bin"
    }
  ],
  "images": [
    {
      "uri": "textures/object_0_baseColor.png"
    },
    {
      "uri": "textures/object_1_metallicRoughness.png"
    }
  ],
  "materials": [
    {
      "doubleSided": true,
      "name": "object_0",
      "pbrMetallicRoughness": {
        "baseColorTexture": {
          "index": 0
        },
        "metallicFactor": 0.18133388596993819,
        "roughnessFactor": 0.9577051494623774
      }
    },
    {
      "doubleSided": true,
      "name": "object_1",
      "pbrMetallicRoughness": {
        "baseColorTexture": {
          "index": 1
        },
        "metallicRoughnessTexture": {
          "index": 2
        },
        "roughnessFactor": 0.30933427606636515
      }
    },
    {
      "doubleSided": true,
      "name": "object_2",
      "pbrMetallicRoughness": {
        "baseColorFactor": [
          0.022903998576993965,
          0.022903998576993965,
          0.022903998576993965,
          1.0
        ],
        "metallicFactor": 0.0,
        "roughnessFactor": 0.0
      }
    }
  ],
  "meshes": [
    {
      "name": "mesh0_object_0_0",
      "primitives": [
        {
          "attributes": {
            "NORMAL": 1,
            "POSITION": 0,
            "TEXCOORD_0": 2
          },
          "indices": 3,
          "material": 0,
          "mode": 4
        }
      ]
    },
    {
      "name": "0001_object_1_object_1_0",
      "primitives": [
        {
          "attributes": {
            "NORMAL": 5,
            "POSITION": 4,
            "TEXCOORD_0": 6
          },
          "indices": 7,
          "material": 1,
          "mode": 4
        }
      ]
    },
    {
      "name": "0002_object_1_object_1_0",
      "primitives": [
        {
          "attributes": {
            "NORMAL": 9,
            "POSITION": 8,
            "TEXCOORD_0": 10
          },
          "indices": 11,
          "material": 1,
          "mode": 4
        }
      ]
    },
    {
      "name": "0003_object_1_object_2_0",
      "primitives": [
        {
          "attributes": {
            "NORMAL": 13,
            "POSITION": 12,
            "TEXCOORD_0": 14
          },
          "indices": 15,
          "material": 2,
          "mode": 4
        }
      ]
    }
  ],
  "nodes": [
    {
      "children": [
        1
      ],
      "matrix": [
        1.0,
        0.0,
        0.0,
        0.0,
        0.0,
        2.220446049250313e-16,
        -1.0,
        0.0,
        0.0,
        1.0,
        2.220446049250313e-16,
        0.0,
        0.0,
        0.0,
        0.0,
        1.0
      ],
      "name": "Sketchfab_model"
    },
    {
      "children": [
        2
      ],
      "matrix": [
        0.009999999776482582,
        0.0,
        0.0,
        0.0,
        0.0,
        0.0,
        0.009999999776482582,
        0.0,
        0.0,
        -0.009999999776482582,
        0.0,
        0.0,
        0.0,
        0.0,
        0.0,
        1.0
      ],
      "name": "model.fbx"
    },
    {
      "children": [
        3,
        5,
        7,
        9
      ],
      "name": "RootNode"
    },
    {
      "children": [
        4
      ],
      "name": "mesh0"
    },
    {
      "mesh": 0,
      "name": "mesh0_object_0_0"
    },
    {
      "children": [
        6
      ],
      "name": "0001_object_1"
    },
    {
      "mesh": 1,
      "name": "0001_object_1_object_1_0"
    },
    {
      "children": [
        8
      ],
      "name": "0002_object_1"
    },
    {
      "mesh": 2,
      "name": "0002_object_1_object_1_0"
    },
    {
      "children": [
        10
      ],
      "name": "0003_object_1"
    },
    {
      "mesh": 3,
      "name": "0003_object_1_object_2_0"
    }
  ],
  "samplers": [
    {
      "magFilter": 9729,
      "minFilter": 9987,
      "wrapS": 10497,
      "wrapT": 10497
    },
    {
      "magFilter": 9729,
      "minFilter": 9987,
      "wrapS": 10497,
      "wrapT": 33648
    }
  ],
  "scene": 0,
  "scenes": [
    {
      "name": "Sketchfab_Scene",
      "nodes": [
        0
      ]
    }
  ],
  "textures": [
    {
      "sampler": 0,
      "source": 0
    },
    {
      "sampler": 1,
      "source": 0
    },
    {
      "sampler": 1,
      "source": 1
    }
  ]
}
