{
  "accessors": [
    {
      "bufferView": 2,
      "componentType": 5126,
      "count": 1691,
      "max": [
        0.2639850080013275,
        0.12838199734687805,
        0.4211600124835968
      ],
      "min": [
        -0.26399001479148865,
        -0.10876800119876862,
        -0.0006399999838322401
      ],
      "type": "VEC3"
    },
    {
      "bufferView": 2,
      "byteOffset": 20292,
      "componentType": 5126,
      "count": 1691,
      "max": [
        0.998945951461792,
        0.9872154593467712,
        0.9999768733978271
      ],
      "min": [
        -0.9990958571434021,
        -0.9999762773513794,
        -0.9999217987060547
      ],
      "type": "VEC3"
    },
    {
      "bufferView": 1,
      "componentType": 5126,
      "count": 1691,
      "max": [
        0.993120014667511,
        -0.005371000152081251
      ],
      "min": [
        0.007023999933153391,
        -0.9932640194892883
      ],
      "type": "VEC2"
    },
    {
      "bufferView": 0,
      "componentType": 5125,
      "count": 8358,
      "type": "SCALAR"
    }
  ],
  "asset": {
    "extras": {
      "author": "gaddiellartey2010 (https://sketchfab.com/gaddiellartey2010)",
      "license": "CC-BY-4.0 (http://creativecommons.org/licenses/by/4.0/)",
      "source": "https://sketchfab.com/3d-models/private-c874448fe82a45448f7fad5adb0763ba",
      "title": "Private"
    },
    "generator": "Sketchfab-15.25.0",
    "version": "2.0"
  },
  "bufferViews": [
    {
      "buffer": 0,
      "byteLength": 33432,
      "name": "floatBufferViews",
      "target": 34963
    },
    {
      "buffer": 0,
      "byteLength": 13528,
      "byteOffset": 33432,
      "byteStride": 8,
      "name": "floatBufferViews",
      "target": 34962
    },
    {
      "buffer": 0,
      "byteLength": 40584,
      "byteOffset": 46960,
      "byteStride": 12,
      "name": "floatBufferViews",
      "target": 34962
    }
  ],
  "buffers": [
    {
      "byteLength": 87544,
      "uri": "scene.bin"
    }
  ],
  "images": [
    {
      "uri": "textures/private_baseColor.png"
    }
  ],
  "materials": [
    {
      "doubleSided": true,
      "name": "private",
      "pbrMetallicRoughness": {
        "baseColorTexture": {
          "index": 0
        },
        "metallicFactor": 0.0
      }
    }
  ],
  "meshes": [
    {
      "name": "Object_0",
      "primitives": [
        {
          "attributes": {
            "NORMAL": 1,
            "POSITION": 0,
            "TEXCOORD_0": 2
          },
          "indices": 3,
          "material": 0,
          "mode": 4
        }
      ]
    }
  ],
  "nodes": [
    {
      "children": [
        1
      ],
      "matrix": [
        1.0,
        0.0,
        0.0,
        0.0,
        0.0,
        2.220446049250313e-16,
        -1.0,
        0.0,
        0.0,
        1.0,
        2.220446049250313e-16,
        0.0,
        0.0,
        0.0,
        0.0,
        1.0
      ],
      "name": "Sketchfab_model"
    },
    {
      "children": [
        2
      ],
      "name": "private.obj.cleaner.materialmerger.gles"
    },
    {
      "mesh": 0,
      "name": "Object_2"
    }
  ],
  "samplers": [
    {
      "magFilter": 9729,
      "minFilter": 9987,
      "wrapS": 10497,
      "wrapT": 10497
    }
  ],
  "scene": 0,
  "scenes": [
    {
      "name": "Sketchfab_Scene",
      "nodes": [
        0
      ]
    }
  ],
  "textures": [
    {
      "sampler": 0,
      "source": 0
    }
  ]
}
